<?xml version="1.0" encoding="us-ascii" standalone="no"?><!--
  - Copyright [2021-present] [ahoo wang <ahoowang@qq.com> (https://github.com/Ahoo-Wang)].
  - Licensed under the Apache License, Version 2.0 (the "License");
  - you may not use this file except in compliance with the License.
  - You may obtain a copy of the License at
  -      http://www.apache.org/licenses/LICENSE-2.0
  - Unless required by applicable law or agreed to in writing, software
  - distributed under the License is distributed on an "AS IS" BASIS,
  - WITHOUT WARRANTIES OR CONDITIONS OF ANY KIND, either express or implied.
  - See the License for the specific language governing permissions and
  - limitations under the License.
  -->

<svg xmlns="http://www.w3.org/2000/svg" xmlns:xlink="http://www.w3.org/1999/xlink" contentStyleType="text/css" height="396px" preserveAspectRatio="none" style="width:907px;height:396px;background:#FFFFFF;" version="1.1" viewBox="0 0 907 396" width="907px" zoomAndPan="magnify"><defs/><g><a href="https://github.com/Ahoo-Wang/CoSec" target="_top" title="https://github.com/Ahoo-Wang/CoSec" xlink:actuate="onRequest" xlink:href="https://github.com/Ahoo-Wang/CoSec" xlink:show="new" xlink:title="https://github.com/Ahoo-Wang/CoSec" xlink:type="simple"><text fill="#808080" font-family="sans-serif" font-size="10" lengthAdjust="spacing" text-decoration="underline" textLength="189" x="704" y="9.668">https://github.com/Ahoo-Wang/CoSec</text></a><text fill="#000000" font-family="sans-serif" font-size="14" font-weight="bold" lengthAdjust="spacing" textLength="164" x="364.5" y="36.3125">Build In ActionMatcher</text><!--class RequestMatcher--><g id="elem_RequestMatcher"><rect codeLine="6" fill="#F1F1F1" height="97.4648" id="RequestMatcher" rx="2.5" ry="2.5" style="stroke:#181818;stroke-width:0.5;" width="475" x="152" y="57.2656"/><ellipse cx="330.25" cy="73.2656" fill="#B4A7E5" rx="11" ry="11" style="stroke:#181818;stroke-width:1.0;"/><path d="M326.1777,69.0308 L326.1777,66.8726 L333.5571,66.8726 L333.5571,69.0308 L331.0918,69.0308 L331.0918,77.1074 L333.5571,77.1074 L333.5571,79.2656 L326.1777,79.2656 L326.1777,77.1074 L328.6431,77.1074 L328.6431,69.0308 Z " fill="#000000"/><text fill="#000000" font-family="sans-serif" font-size="14" font-style="italic" lengthAdjust="spacing" textLength="110" x="350.75" y="78.5566">RequestMatcher</text><line style="stroke:#181818;stroke-width:0.5;" x1="153" x2="626" y1="89.2656" y2="89.2656"/><text fill="#000000" font-family="sans-serif" font-size="14" lengthAdjust="spacing" textLength="101" x="158" y="106.8008">val type: String</text><text fill="#000000" font-family="sans-serif" font-size="14" lengthAdjust="spacing" textLength="220" x="158" y="123.2891">val configuration: Configuration</text><line style="stroke:#181818;stroke-width:0.5;" x1="153" x2="626" y1="130.2422" y2="130.2422"/><text fill="#000000" font-family="sans-serif" font-size="14" lengthAdjust="spacing" textLength="463" x="158" y="147.7773">match(request: Request, securityContext: SecurityContext): Boolean</text></g><!--class ActionMatcher--><g id="elem_ActionMatcher"><rect codeLine="11" fill="#F1F1F1" height="48" id="ActionMatcher" rx="2.5" ry="2.5" style="stroke:#181818;stroke-width:0.5;" width="131" x="324" y="214.2656"/><ellipse cx="339" cy="230.2656" fill="#B4A7E5" rx="11" ry="11" style="stroke:#181818;stroke-width:1.0;"/><path d="M334.9277,226.0308 L334.9277,223.8726 L342.3071,223.8726 L342.3071,226.0308 L339.8418,226.0308 L339.8418,234.1074 L342.3071,234.1074 L342.3071,236.2656 L334.9277,236.2656 L334.9277,234.1074 L337.3931,234.1074 L337.3931,226.0308 Z " fill="#000000"/><text fill="#000000" font-family="sans-serif" font-size="14" font-style="italic" lengthAdjust="spacing" textLength="99" x="353" y="235.5566">ActionMatcher</text><line style="stroke:#181818;stroke-width:0.5;" x1="325" x2="454" y1="246.2656" y2="246.2656"/><line style="stroke:#181818;stroke-width:0.5;" x1="325" x2="454" y1="254.2656" y2="254.2656"/></g><!--class AllActionMatcher--><g id="elem_AllActionMatcher"><rect codeLine="12" fill="#F1F1F1" height="48" id="AllActionMatcher" rx="2.5" ry="2.5" style="stroke:#181818;stroke-width:0.5;" width="149" x="7" y="322.2656"/><ellipse cx="22" cy="338.2656" fill="#ADD1B2" rx="11" ry="11" style="stroke:#181818;stroke-width:1.0;"/><path d="M24.9731,343.9087 Q24.3921,344.2075 23.7529,344.3569 Q23.1138,344.5063 22.4082,344.5063 Q19.9014,344.5063 18.5815,342.8545 Q17.2617,341.2026 17.2617,338.0815 Q17.2617,334.9521 18.5815,333.3003 Q19.9014,331.6484 22.4082,331.6484 Q23.1138,331.6484 23.7612,331.7979 Q24.4087,331.9473 24.9731,332.2461 L24.9731,334.9688 Q24.3423,334.3877 23.7488,334.1179 Q23.1553,333.8481 22.5244,333.8481 Q21.1797,333.8481 20.4949,334.9148 Q19.8101,335.9814 19.8101,338.0815 Q19.8101,340.1733 20.4949,341.24 Q21.1797,342.3066 22.5244,342.3066 Q23.1553,342.3066 23.7488,342.0369 Q24.3423,341.7671 24.9731,341.186 Z " fill="#000000"/><text fill="#000000" font-family="sans-serif" font-size="14" lengthAdjust="spacing" textLength="117" x="36" y="343.5566">AllActionMatcher</text><line style="stroke:#181818;stroke-width:0.5;" x1="8" x2="155" y1="354.2656" y2="354.2656"/><line style="stroke:#181818;stroke-width:0.5;" x1="8" x2="155" y1="362.2656" y2="362.2656"/></g><!--class PathActionMatcher--><g id="elem_PathActionMatcher"><rect codeLine="13" fill="#F1F1F1" height="48" id="PathActionMatcher" rx="2.5" ry="2.5" style="stroke:#181818;stroke-width:0.5;" width="161" x="191" y="322.2656"/><ellipse cx="206" cy="338.2656" fill="#ADD1B2" rx="11" ry="11" style="stroke:#181818;stroke-width:1.0;"/><path d="M208.9731,343.9087 Q208.3921,344.2075 207.7529,344.3569 Q207.1138,344.5063 206.4082,344.5063 Q203.9014,344.5063 202.5815,342.8545 Q201.2617,341.2026 201.2617,338.0815 Q201.2617,334.9521 202.5815,333.3003 Q203.9014,331.6484 206.4082,331.6484 Q207.1138,331.6484 207.7612,331.7979 Q208.4087,331.9473 208.9731,332.2461 L208.9731,334.9688 Q208.3423,334.3877 207.7488,334.1179 Q207.1553,333.8481 206.5244,333.8481 Q205.1797,333.8481 204.4949,334.9148 Q203.8101,335.9814 203.8101,338.0815 Q203.8101,340.1733 204.4949,341.24 Q205.1797,342.3066 206.5244,342.3066 Q207.1553,342.3066 207.7488,342.0369 Q208.3423,341.7671 208.9731,341.186 Z " fill="#000000"/><text fill="#000000" font-family="sans-serif" font-size="14" lengthAdjust="spacing" textLength="129" x="220" y="343.5566">PathActionMatcher</text><line style="stroke:#181818;stroke-width:0.5;" x1="192" x2="351" y1="354.2656" y2="354.2656"/><line style="stroke:#181818;stroke-width:0.5;" x1="192" x2="351" y1="362.2656" y2="362.2656"/></g><!--class ReplaceablePathActionMatcher--><g id="elem_ReplaceablePathActionMatcher"><rect codeLine="14" fill="#F1F1F1" height="48" id="ReplaceablePathActionMatcher" rx="2.5" ry="2.5" style="stroke:#181818;stroke-width:0.5;" width="243" x="387" y="322.2656"/><ellipse cx="402" cy="338.2656" fill="#ADD1B2" rx="11" ry="11" style="stroke:#181818;stroke-width:1.0;"/><path d="M404.9731,343.9087 Q404.3921,344.2075 403.7529,344.3569 Q403.1138,344.5063 402.4082,344.5063 Q399.9014,344.5063 398.5815,342.8545 Q397.2617,341.2026 397.2617,338.0815 Q397.2617,334.9521 398.5815,333.3003 Q399.9014,331.6484 402.4082,331.6484 Q403.1138,331.6484 403.7612,331.7979 Q404.4087,331.9473 404.9731,332.2461 L404.9731,334.9688 Q404.3423,334.3877 403.7488,334.1179 Q403.1553,333.8481 402.5244,333.8481 Q401.1797,333.8481 400.4949,334.9148 Q399.8101,335.9814 399.8101,338.0815 Q399.8101,340.1733 400.4949,341.24 Q401.1797,342.3066 402.5244,342.3066 Q403.1553,342.3066 403.7488,342.0369 Q404.3423,341.7671 404.9731,341.186 Z " fill="#000000"/><text fill="#000000" font-family="sans-serif" font-size="14" lengthAdjust="spacing" textLength="211" x="416" y="343.5566">ReplaceablePathActionMatcher</text><line style="stroke:#181818;stroke-width:0.5;" x1="388" x2="629" y1="354.2656" y2="354.2656"/><line style="stroke:#181818;stroke-width:0.5;" x1="388" x2="629" y1="362.2656" y2="362.2656"/></g><!--class CompositePathActionMatcher--><g id="elem_CompositePathActionMatcher"><rect fill="#F1F1F1" height="48" id="CompositePathActionMatcher" rx="2.5" ry="2.5" style="stroke:#181818;stroke-width:0.5;" width="235" x="665" y="322.2656"/><ellipse cx="680" cy="338.2656" fill="#ADD1B2" rx="11" ry="11" style="stroke:#181818;stroke-width:1.0;"/><path d="M682.9731,343.9087 Q682.3921,344.2075 681.7529,344.3569 Q681.1138,344.5063 680.4082,344.5063 Q677.9014,344.5063 676.5815,342.8545 Q675.2617,341.2026 675.2617,338.0815 Q675.2617,334.9521 676.5815,333.3003 Q677.9014,331.6484 680.4082,331.6484 Q681.1138,331.6484 681.7612,331.7979 Q682.4087,331.9473 682.9731,332.2461 L682.9731,334.9688 Q682.3423,334.3877 681.7488,334.1179 Q681.1553,333.8481 680.5244,333.8481 Q679.1797,333.8481 678.4949,334.9148 Q677.8101,335.9814 677.8101,338.0815 Q677.8101,340.1733 678.4949,341.24 Q679.1797,342.3066 680.5244,342.3066 Q681.1553,342.3066 681.7488,342.0369 Q682.3423,341.7671 682.9731,341.186 Z " fill="#000000"/><text fill="#000000" font-family="sans-serif" font-size="14" lengthAdjust="spacing" textLength="203" x="694" y="343.5566">CompositePathActionMatcher</text><line style="stroke:#181818;stroke-width:0.5;" x1="666" x2="899" y1="354.2656" y2="354.2656"/><line style="stroke:#181818;stroke-width:0.5;" x1="666" x2="899" y1="362.2656" y2="362.2656"/></g><!--reverse link RequestMatcher to ActionMatcher--><g id="link_RequestMatcher_ActionMatcher"><path codeLine="16" d="M389.5,175.9756 C389.5,189.6656 389.5,203.1256 389.5,213.9256 " fill="none" id="RequestMatcher-backto-ActionMatcher" style="stroke:#181818;stroke-width:1.0;"/><polygon fill="none" points="382.5,176.1356,389.5,156.1356,396.5,176.1356,382.5,176.1356" style="stroke:#181818;stroke-width:1.0;"/></g><!--reverse link ActionMatcher to AllActionMatcher--><g id="link_ActionMatcher_AllActionMatcher"><path codeLine="17" d="M303.74,268.7756 C255.13,285.5056 195.15,306.1556 149.76,321.7756 " fill="none" id="ActionMatcher-backto-AllActionMatcher" style="stroke:#181818;stroke-width:1.0;"/><polygon fill="none" points="301.18,262.2556,322.37,262.3656,305.74,275.4956,301.18,262.2556" style="stroke:#181818;stroke-width:1.0;"/></g><!--reverse link ActionMatcher to PathActionMatcher--><g id="link_ActionMatcher_PathActionMatcher"><path codeLine="18" d="M347.71,276.8056 C330.92,291.8956 312.08,308.8156 297.34,322.0556 " fill="none" id="ActionMatcher-backto-PathActionMatcher" style="stroke:#181818;stroke-width:1.0;"/><polygon fill="none" points="342.92,271.6956,362.48,263.5356,352.28,282.1156,342.92,271.6956" style="stroke:#181818;stroke-width:1.0;"/></g><!--reverse link ActionMatcher to ReplaceablePathActionMatcher--><g id="link_ActionMatcher_ReplaceablePathActionMatcher"><path codeLine="19" d="M431.64,276.8056 C448.58,291.8956 467.58,308.8156 482.45,322.0556 " fill="none" id="ActionMatcher-backto-ReplaceablePathActionMatcher" style="stroke:#181818;stroke-width:1.0;"/><polygon fill="none" points="427.02,282.0656,416.75,263.5356,436.34,271.6056,427.02,282.0656" style="stroke:#181818;stroke-width:1.0;"/></g><!--reverse link ActionMatcher to CompositePathActionMatcher--><g id="link_ActionMatcher_CompositePathActionMatcher"><path codeLine="20" d="M475.97,262.5856 C541.14,280.1656 630.14,304.1756 695.46,321.7856 " fill="none" id="ActionMatcher-backto-CompositePathActionMatcher" style="stroke:#181818;stroke-width:1.0;"/><polygon fill="none" points="474.23,269.3656,456.74,257.4056,477.87,255.8556,474.23,269.3656" style="stroke:#181818;stroke-width:1.0;"/></g><a href="https://github.com/Ahoo-Wang/CoSec" target="_top" title="https://github.com/Ahoo-Wang/CoSec" xlink:actuate="onRequest" xlink:href="https://github.com/Ahoo-Wang/CoSec" xlink:show="new" xlink:title="https://github.com/Ahoo-Wang/CoSec" xlink:type="simple"><text fill="#808080" font-family="sans-serif" font-size="10" lengthAdjust="spacing" text-decoration="underline" textLength="189" x="352" y="385.9336">https://github.com/Ahoo-Wang/CoSec</text></a><!--SRC=[VOzDRi9038NtSmgpenBq054tm8e54e8Jc8a1IyvCcF5KHBHtRr9-HCW8x_py-VbvnCvAAWa46v_qiqwL6AEiGZ1FB2Ki7SoiidShL7kaO0mxfR17Ix2XKwAejyd5G5lVAA1DJGLiDR0xF4JhtPuFAM1dLi3YkVs7givc7AwUnTry0f5i2gnDkw5qRYVRll1HmDnx8NJczobSFxKLZ15c8ZbvZNhCwHkgfRN2dT0GCVtluUjdEdqvskjkm6k233EybO7UPilm2r_LFh8EwJy0]--></g></svg>