<?xml version="1.0" encoding="us-ascii" standalone="no"?><!--
  - Copyright [2021-present] [ahoo wang <ahoowang@qq.com> (https://github.com/Ahoo-Wang)].
  - Licensed under the Apache License, Version 2.0 (the "License");
  - you may not use this file except in compliance with the License.
  - You may obtain a copy of the License at
  -      http://www.apache.org/licenses/LICENSE-2.0
  - Unless required by applicable law or agreed to in writing, software
  - distributed under the License is distributed on an "AS IS" BASIS,
  - WITHOUT WARRANTIES OR CONDITIONS OF ANY KIND, either express or implied.
  - See the License for the specific language governing permissions and
  - limitations under the License.
  -->
<svg xmlns="http://www.w3.org/2000/svg" xmlns:xlink="http://www.w3.org/1999/xlink" contentStyleType="text/css" height="1295px" preserveAspectRatio="none" style="width:533px;height:1295px;background:#FFFFFF;" version="1.1" viewBox="0 0 533 1295" width="533px" zoomAndPan="magnify"><defs/><g><a href="https://github.com/Ahoo-Wang/CoSec" target="_top" title="https://github.com/Ahoo-Wang/CoSec" xlink:actuate="onRequest" xlink:href="https://github.com/Ahoo-Wang/CoSec" xlink:show="new" xlink:title="https://github.com/Ahoo-Wang/CoSec" xlink:type="simple"><text fill="#808080" font-family="sans-serif" font-size="10" lengthAdjust="spacing" text-decoration="underline" textLength="189" x="331" y="19.668">https://github.com/Ahoo-Wang/CoSec</text></a><text fill="#000000" font-family="sans-serif" font-size="14" font-weight="bold" lengthAdjust="spacing" textLength="354" x="88" y="46.3125">Authorization.authorize(Request,SecurityContext)</text><ellipse cx="198.5" cy="70.2656" fill="#222222" rx="10" ry="10" style="stroke:#222222;stroke-width:1.0;"/><rect fill="#F1F1F1" height="34.1328" rx="12.5" ry="12.5" style="stroke:#181818;stroke-width:0.5;" width="221" x="88" y="100.2656"/><text fill="#000000" font-family="sans-serif" font-size="12" lengthAdjust="spacing" textLength="201" x="98" y="121.8672">authorize(Request,SecurityContext)</text><rect fill="none" height="355.0195" style="stroke:#000000;stroke-width:1.5;" width="508.5" x="12.5" y="144.3984"/><path d="M121.5,144.3984 L121.5,153.8867 L111.5,163.8867 L12.5,163.8867 " fill="none" style="stroke:#000000;stroke-width:1.5;"/><text fill="#000000" font-family="sans-serif" font-size="14" lengthAdjust="spacing" textLength="99" x="15.5" y="158.9336">Global Policies</text><rect fill="#F1F1F1" height="34.1328" rx="12.5" ry="12.5" style="stroke:#181818;stroke-width:0.5;" width="125" x="136" y="180.8867"/><text fill="#000000" font-family="sans-serif" font-size="12" lengthAdjust="spacing" textLength="105" x="146" y="202.4883">get Global Policies</text><rect fill="#F1F1F1" height="34.1328" rx="12.5" ry="12.5" style="stroke:#181818;stroke-width:0.5;" width="138" x="129.5" y="235.0195"/><text fill="#000000" font-family="sans-serif" font-size="12" lengthAdjust="spacing" textLength="118" x="139.5" y="256.6211">get Deny Statements</text><polygon fill="#F1F1F1" points="99,289.1523,298,289.1523,310,301.1523,298,313.1523,99,313.1523,87,301.1523,99,289.1523" style="stroke:#181818;stroke-width:0.5;"/><text fill="#000000" font-family="sans-serif" font-size="11" lengthAdjust="spacing" textLength="199" x="99" y="305.3096">verify request using Deny Statements</text><text fill="#000000" font-family="sans-serif" font-size="11" lengthAdjust="spacing" textLength="22" x="65" y="298.832">true</text><text fill="#000000" font-family="sans-serif" font-size="11" lengthAdjust="spacing" textLength="25" x="310" y="298.832">false</text><rect fill="#F1F1F1" height="34.1328" rx="12.5" ry="12.5" style="stroke:#181818;stroke-width:0.5;" width="96" x="26" y="323.1523"/><text fill="#000000" font-family="sans-serif" font-size="12" lengthAdjust="spacing" textLength="76" x="36" y="344.7539">deny request</text><ellipse cx="74" cy="388.2852" fill="none" rx="11" ry="11" style="stroke:#222222;stroke-width:1.0;"/><ellipse cx="74" cy="388.2852" fill="#222222" rx="6" ry="6" style="stroke:#111111;stroke-width:1.0;"/><rect fill="#F1F1F1" height="34.1328" rx="12.5" ry="12.5" style="stroke:#181818;stroke-width:0.5;" width="139" x="253.5" y="323.1523"/><text fill="#000000" font-family="sans-serif" font-size="12" lengthAdjust="spacing" textLength="119" x="263.5" y="344.7539">get Allow Statements</text><polygon fill="#F1F1F1" points="222.5,377.2852,423.5,377.2852,435.5,389.2852,423.5,401.2852,222.5,401.2852,210.5,389.2852,222.5,377.2852" style="stroke:#181818;stroke-width:0.5;"/><text fill="#000000" font-family="sans-serif" font-size="11" lengthAdjust="spacing" textLength="201" x="222.5" y="393.4424">verify request using Allow Statements</text><text fill="#000000" font-family="sans-serif" font-size="11" lengthAdjust="spacing" textLength="22" x="188.5" y="386.9648">true</text><text fill="#000000" font-family="sans-serif" font-size="11" lengthAdjust="spacing" textLength="25" x="435.5" y="386.9648">false</text><rect fill="#F1F1F1" height="34.1328" rx="12.5" ry="12.5" style="stroke:#181818;stroke-width:0.5;" width="97" x="152" y="411.2852"/><text fill="#000000" font-family="sans-serif" font-size="12" lengthAdjust="spacing" textLength="77" x="162" y="432.8867">allow request</text><ellipse cx="200.5" cy="476.418" fill="none" rx="11" ry="11" style="stroke:#222222;stroke-width:1.0;"/><ellipse cx="200.5" cy="476.418" fill="#222222" rx="6" ry="6" style="stroke:#111111;stroke-width:1.0;"/><rect fill="#F1F1F1" height="34.1328" rx="12.5" ry="12.5" style="stroke:#181818;stroke-width:0.5;" width="115" x="388" y="411.2852"/><text fill="#000000" font-family="sans-serif" font-size="12" lengthAdjust="spacing" textLength="95" x="398" y="432.8867">Principal Policies</text><rect fill="none" height="355.0195" style="stroke:#000000;stroke-width:1.5;" width="509.5" x="12.5" y="509.418"/><path d="M136.5,509.418 L136.5,518.9063 L126.5,528.9063 L12.5,528.9063 " fill="none" style="stroke:#000000;stroke-width:1.5;"/><text fill="#000000" font-family="sans-serif" font-size="14" lengthAdjust="spacing" textLength="114" x="15.5" y="523.9531">Principal Policies</text><rect fill="#F1F1F1" height="34.1328" rx="12.5" ry="12.5" style="stroke:#181818;stroke-width:0.5;" width="137" x="130" y="545.9063"/><text fill="#000000" font-family="sans-serif" font-size="12" lengthAdjust="spacing" textLength="117" x="140" y="567.5078">get Principal Policies</text><rect fill="#F1F1F1" height="34.1328" rx="12.5" ry="12.5" style="stroke:#181818;stroke-width:0.5;" width="138" x="129.5" y="600.0391"/><text fill="#000000" font-family="sans-serif" font-size="12" lengthAdjust="spacing" textLength="118" x="139.5" y="621.6406">get Deny Statements</text><polygon fill="#F1F1F1" points="99,654.1719,298,654.1719,310,666.1719,298,678.1719,99,678.1719,87,666.1719,99,654.1719" style="stroke:#181818;stroke-width:0.5;"/><text fill="#000000" font-family="sans-serif" font-size="11" lengthAdjust="spacing" textLength="199" x="99" y="670.3291">verify request using Deny Statements</text><text fill="#000000" font-family="sans-serif" font-size="11" lengthAdjust="spacing" textLength="22" x="65" y="663.8516">true</text><text fill="#000000" font-family="sans-serif" font-size="11" lengthAdjust="spacing" textLength="25" x="310" y="663.8516">false</text><rect fill="#F1F1F1" height="34.1328" rx="12.5" ry="12.5" style="stroke:#181818;stroke-width:0.5;" width="96" x="26" y="688.1719"/><text fill="#000000" font-family="sans-serif" font-size="12" lengthAdjust="spacing" textLength="76" x="36" y="709.7734">deny request</text><ellipse cx="74" cy="753.3047" fill="none" rx="11" ry="11" style="stroke:#222222;stroke-width:1.0;"/><ellipse cx="74" cy="753.3047" fill="#222222" rx="6" ry="6" style="stroke:#111111;stroke-width:1.0;"/><rect fill="#F1F1F1" height="34.1328" rx="12.5" ry="12.5" style="stroke:#181818;stroke-width:0.5;" width="139" x="253.5" y="688.1719"/><text fill="#000000" font-family="sans-serif" font-size="12" lengthAdjust="spacing" textLength="119" x="263.5" y="709.7734">get Allow Statements</text><polygon fill="#F1F1F1" points="222.5,742.3047,423.5,742.3047,435.5,754.3047,423.5,766.3047,222.5,766.3047,210.5,754.3047,222.5,742.3047" style="stroke:#181818;stroke-width:0.5;"/><text fill="#000000" font-family="sans-serif" font-size="11" lengthAdjust="spacing" textLength="201" x="222.5" y="758.4619">verify request using Allow Statements</text><text fill="#000000" font-family="sans-serif" font-size="11" lengthAdjust="spacing" textLength="22" x="188.5" y="751.9844">true</text><text fill="#000000" font-family="sans-serif" font-size="11" lengthAdjust="spacing" textLength="25" x="435.5" y="751.9844">false</text><rect fill="#F1F1F1" height="34.1328" rx="12.5" ry="12.5" style="stroke:#181818;stroke-width:0.5;" width="97" x="152" y="776.3047"/><text fill="#000000" font-family="sans-serif" font-size="12" lengthAdjust="spacing" textLength="77" x="162" y="797.9063">allow request</text><ellipse cx="200.5" cy="841.4375" fill="none" rx="11" ry="11" style="stroke:#222222;stroke-width:1.0;"/><ellipse cx="200.5" cy="841.4375" fill="#222222" rx="6" ry="6" style="stroke:#111111;stroke-width:1.0;"/><rect fill="#F1F1F1" height="34.1328" rx="12.5" ry="12.5" style="stroke:#181818;stroke-width:0.5;" width="117" x="387" y="776.3047"/><text fill="#000000" font-family="sans-serif" font-size="12" lengthAdjust="spacing" textLength="97" x="397" y="797.9063">Role Permissions</text><rect fill="none" height="355.0195" style="stroke:#000000;stroke-width:1.5;" width="505" x="11" y="874.4375"/><path d="M137,874.4375 L137,883.9258 L127,893.9258 L11,893.9258 " fill="none" style="stroke:#000000;stroke-width:1.5;"/><text fill="#000000" font-family="sans-serif" font-size="14" lengthAdjust="spacing" textLength="116" x="14" y="888.9727">Role Permissions</text><rect fill="#F1F1F1" height="34.1328" rx="12.5" ry="12.5" style="stroke:#181818;stroke-width:0.5;" width="139" x="129" y="910.9258"/><text fill="#000000" font-family="sans-serif" font-size="12" lengthAdjust="spacing" textLength="119" x="139" y="932.5273">get Role Permissions</text><rect fill="#F1F1F1" height="34.1328" rx="12.5" ry="12.5" style="stroke:#181818;stroke-width:0.5;" width="143" x="127" y="965.0586"/><text fill="#000000" font-family="sans-serif" font-size="12" lengthAdjust="spacing" textLength="123" x="137" y="986.6602">get Deny Permissions</text><polygon fill="#F1F1F1" points="96,1019.1914,301,1019.1914,313,1031.1914,301,1043.1914,96,1043.1914,84,1031.1914,96,1019.1914" style="stroke:#181818;stroke-width:0.5;"/><text fill="#000000" font-family="sans-serif" font-size="11" lengthAdjust="spacing" textLength="205" x="96" y="1035.3486">verify request using Deny Permissions</text><text fill="#000000" font-family="sans-serif" font-size="11" lengthAdjust="spacing" textLength="22" x="62" y="1028.8711">true</text><text fill="#000000" font-family="sans-serif" font-size="11" lengthAdjust="spacing" textLength="25" x="313" y="1028.8711">false</text><rect fill="#F1F1F1" height="34.1328" rx="12.5" ry="12.5" style="stroke:#181818;stroke-width:0.5;" width="96" x="24.5" y="1053.1914"/><text fill="#000000" font-family="sans-serif" font-size="12" lengthAdjust="spacing" textLength="76" x="34.5" y="1074.793">deny request</text><ellipse cx="72.5" cy="1118.3242" fill="none" rx="11" ry="11" style="stroke:#222222;stroke-width:1.0;"/><ellipse cx="72.5" cy="1118.3242" fill="#222222" rx="6" ry="6" style="stroke:#111111;stroke-width:1.0;"/><rect fill="#F1F1F1" height="34.1328" rx="12.5" ry="12.5" style="stroke:#181818;stroke-width:0.5;" width="144" x="252.5" y="1053.1914"/><text fill="#000000" font-family="sans-serif" font-size="12" lengthAdjust="spacing" textLength="124" x="262.5" y="1074.793">get Allow Permissions</text><polygon fill="#F1F1F1" points="221,1107.3242,428,1107.3242,440,1119.3242,428,1131.3242,221,1131.3242,209,1119.3242,221,1107.3242" style="stroke:#181818;stroke-width:0.5;"/><text fill="#000000" font-family="sans-serif" font-size="11" lengthAdjust="spacing" textLength="207" x="221" y="1123.4814">verify request using Allow Permissions</text><text fill="#000000" font-family="sans-serif" font-size="11" lengthAdjust="spacing" textLength="22" x="187" y="1117.0039">true</text><text fill="#000000" font-family="sans-serif" font-size="11" lengthAdjust="spacing" textLength="25" x="440" y="1117.0039">false</text><rect fill="#F1F1F1" height="34.1328" rx="12.5" ry="12.5" style="stroke:#181818;stroke-width:0.5;" width="97" x="150.5" y="1141.3242"/><text fill="#000000" font-family="sans-serif" font-size="12" lengthAdjust="spacing" textLength="77" x="160.5" y="1162.9258">allow request</text><ellipse cx="199" cy="1206.457" fill="none" rx="11" ry="11" style="stroke:#222222;stroke-width:1.0;"/><ellipse cx="199" cy="1206.457" fill="#222222" rx="6" ry="6" style="stroke:#111111;stroke-width:1.0;"/><rect fill="#F1F1F1" height="34.1328" rx="12.5" ry="12.5" style="stroke:#181818;stroke-width:0.5;" width="96" x="402" y="1141.3242"/><text fill="#000000" font-family="sans-serif" font-size="12" lengthAdjust="spacing" textLength="76" x="412" y="1162.9258">deny request</text><ellipse cx="198.5" cy="1260.457" fill="none" rx="11" ry="11" style="stroke:#222222;stroke-width:1.0;"/><ellipse cx="198.5" cy="1260.457" fill="#222222" rx="6" ry="6" style="stroke:#111111;stroke-width:1.0;"/><line style="stroke:#181818;stroke-width:1.0;" x1="198.5" x2="198.5" y1="80.2656" y2="100.2656"/><polygon fill="#181818" points="194.5,90.2656,198.5,100.2656,202.5,90.2656,198.5,94.2656" style="stroke:#181818;stroke-width:1.0;"/><line style="stroke:#181818;stroke-width:1.0;" x1="198.5" x2="198.5" y1="215.0195" y2="235.0195"/><polygon fill="#181818" points="194.5,225.0195,198.5,235.0195,202.5,225.0195,198.5,229.0195" style="stroke:#181818;stroke-width:1.0;"/><line style="stroke:#181818;stroke-width:1.0;" x1="74" x2="74" y1="357.2852" y2="377.2852"/><polygon fill="#181818" points="70,367.2852,74,377.2852,78,367.2852,74,371.2852" style="stroke:#181818;stroke-width:1.0;"/><line style="stroke:#181818;stroke-width:1.0;" x1="200.5" x2="200.5" y1="445.418" y2="465.418"/><polygon fill="#181818" points="196.5,455.418,200.5,465.418,204.5,455.418,200.5,459.418" style="stroke:#181818;stroke-width:1.0;"/><line style="stroke:#181818;stroke-width:1.0;" x1="210.5" x2="200.5" y1="389.2852" y2="389.2852"/><line style="stroke:#181818;stroke-width:1.0;" x1="200.5" x2="200.5" y1="389.2852" y2="411.2852"/><polygon fill="#181818" points="196.5,401.2852,200.5,411.2852,204.5,401.2852,200.5,405.2852" style="stroke:#181818;stroke-width:1.0;"/><line style="stroke:#181818;stroke-width:1.0;" x1="435.5" x2="445.5" y1="389.2852" y2="389.2852"/><line style="stroke:#181818;stroke-width:1.0;" x1="445.5" x2="445.5" y1="389.2852" y2="411.2852"/><polygon fill="#181818" points="441.5,401.2852,445.5,411.2852,449.5,401.2852,445.5,405.2852" style="stroke:#181818;stroke-width:1.0;"/><line style="stroke:#181818;stroke-width:1.0;" x1="445.5" x2="445.5" y1="445.418" y2="492.418"/><line style="stroke:#181818;stroke-width:1.0;" x1="445.5" x2="198.5" y1="492.418" y2="492.418"/><line style="stroke:#181818;stroke-width:1.0;" x1="198.5" x2="198.5" y1="492.418" y2="545.9063"/><polygon fill="#181818" points="194.5,535.9063,198.5,545.9063,202.5,535.9063,198.5,539.9063" style="stroke:#181818;stroke-width:1.0;"/><line style="stroke:#181818;stroke-width:1.0;" x1="323" x2="323" y1="357.2852" y2="377.2852"/><polygon fill="#181818" points="319,367.2852,323,377.2852,327,367.2852,323,371.2852" style="stroke:#181818;stroke-width:1.0;"/><line style="stroke:#181818;stroke-width:1.0;" x1="87" x2="74" y1="301.1523" y2="301.1523"/><line style="stroke:#181818;stroke-width:1.0;" x1="74" x2="74" y1="301.1523" y2="323.1523"/><polygon fill="#181818" points="70,313.1523,74,323.1523,78,313.1523,74,317.1523" style="stroke:#181818;stroke-width:1.0;"/><line style="stroke:#181818;stroke-width:1.0;" x1="310" x2="323" y1="301.1523" y2="301.1523"/><line style="stroke:#181818;stroke-width:1.0;" x1="323" x2="323" y1="301.1523" y2="323.1523"/><polygon fill="#181818" points="319,313.1523,323,323.1523,327,313.1523,323,317.1523" style="stroke:#181818;stroke-width:1.0;"/><line style="stroke:#181818;stroke-width:1.0;" x1="198.5" x2="198.5" y1="269.1523" y2="289.1523"/><polygon fill="#181818" points="194.5,279.1523,198.5,289.1523,202.5,279.1523,198.5,283.1523" style="stroke:#181818;stroke-width:1.0;"/><line style="stroke:#181818;stroke-width:1.0;" x1="198.5" x2="198.5" y1="134.3984" y2="180.8867"/><polygon fill="#181818" points="194.5,170.8867,198.5,180.8867,202.5,170.8867,198.5,174.8867" style="stroke:#181818;stroke-width:1.0;"/><line style="stroke:#181818;stroke-width:1.0;" x1="198.5" x2="198.5" y1="580.0391" y2="600.0391"/><polygon fill="#181818" points="194.5,590.0391,198.5,600.0391,202.5,590.0391,198.5,594.0391" style="stroke:#181818;stroke-width:1.0;"/><line style="stroke:#181818;stroke-width:1.0;" x1="74" x2="74" y1="722.3047" y2="742.3047"/><polygon fill="#181818" points="70,732.3047,74,742.3047,78,732.3047,74,736.3047" style="stroke:#181818;stroke-width:1.0;"/><line style="stroke:#181818;stroke-width:1.0;" x1="200.5" x2="200.5" y1="810.4375" y2="830.4375"/><polygon fill="#181818" points="196.5,820.4375,200.5,830.4375,204.5,820.4375,200.5,824.4375" style="stroke:#181818;stroke-width:1.0;"/><line style="stroke:#181818;stroke-width:1.0;" x1="210.5" x2="200.5" y1="754.3047" y2="754.3047"/><line style="stroke:#181818;stroke-width:1.0;" x1="200.5" x2="200.5" y1="754.3047" y2="776.3047"/><polygon fill="#181818" points="196.5,766.3047,200.5,776.3047,204.5,766.3047,200.5,770.3047" style="stroke:#181818;stroke-width:1.0;"/><line style="stroke:#181818;stroke-width:1.0;" x1="435.5" x2="445.5" y1="754.3047" y2="754.3047"/><line style="stroke:#181818;stroke-width:1.0;" x1="445.5" x2="445.5" y1="754.3047" y2="776.3047"/><polygon fill="#181818" points="441.5,766.3047,445.5,776.3047,449.5,766.3047,445.5,770.3047" style="stroke:#181818;stroke-width:1.0;"/><line style="stroke:#181818;stroke-width:1.0;" x1="445.5" x2="445.5" y1="810.4375" y2="857.4375"/><line style="stroke:#181818;stroke-width:1.0;" x1="445.5" x2="198.5" y1="857.4375" y2="857.4375"/><line style="stroke:#181818;stroke-width:1.0;" x1="198.5" x2="198.5" y1="857.4375" y2="910.9258"/><polygon fill="#181818" points="194.5,900.9258,198.5,910.9258,202.5,900.9258,198.5,904.9258" style="stroke:#181818;stroke-width:1.0;"/><line style="stroke:#181818;stroke-width:1.0;" x1="323" x2="323" y1="722.3047" y2="742.3047"/><polygon fill="#181818" points="319,732.3047,323,742.3047,327,732.3047,323,736.3047" style="stroke:#181818;stroke-width:1.0;"/><line style="stroke:#181818;stroke-width:1.0;" x1="87" x2="74" y1="666.1719" y2="666.1719"/><line style="stroke:#181818;stroke-width:1.0;" x1="74" x2="74" y1="666.1719" y2="688.1719"/><polygon fill="#181818" points="70,678.1719,74,688.1719,78,678.1719,74,682.1719" style="stroke:#181818;stroke-width:1.0;"/><line style="stroke:#181818;stroke-width:1.0;" x1="310" x2="323" y1="666.1719" y2="666.1719"/><line style="stroke:#181818;stroke-width:1.0;" x1="323" x2="323" y1="666.1719" y2="688.1719"/><polygon fill="#181818" points="319,678.1719,323,688.1719,327,678.1719,323,682.1719" style="stroke:#181818;stroke-width:1.0;"/><line style="stroke:#181818;stroke-width:1.0;" x1="198.5" x2="198.5" y1="634.1719" y2="654.1719"/><polygon fill="#181818" points="194.5,644.1719,198.5,654.1719,202.5,644.1719,198.5,648.1719" style="stroke:#181818;stroke-width:1.0;"/><line style="stroke:#181818;stroke-width:1.0;" x1="198.5" x2="198.5" y1="945.0586" y2="965.0586"/><polygon fill="#181818" points="194.5,955.0586,198.5,965.0586,202.5,955.0586,198.5,959.0586" style="stroke:#181818;stroke-width:1.0;"/><line style="stroke:#181818;stroke-width:1.0;" x1="72.5" x2="72.5" y1="1087.3242" y2="1107.3242"/><polygon fill="#181818" points="68.5,1097.3242,72.5,1107.3242,76.5,1097.3242,72.5,1101.3242" style="stroke:#181818;stroke-width:1.0;"/><line style="stroke:#181818;stroke-width:1.0;" x1="199" x2="199" y1="1175.457" y2="1195.457"/><polygon fill="#181818" points="195,1185.457,199,1195.457,203,1185.457,199,1189.457" style="stroke:#181818;stroke-width:1.0;"/><line style="stroke:#181818;stroke-width:1.0;" x1="209" x2="199" y1="1119.3242" y2="1119.3242"/><line style="stroke:#181818;stroke-width:1.0;" x1="199" x2="199" y1="1119.3242" y2="1141.3242"/><polygon fill="#181818" points="195,1131.3242,199,1141.3242,203,1131.3242,199,1135.3242" style="stroke:#181818;stroke-width:1.0;"/><line style="stroke:#181818;stroke-width:1.0;" x1="440" x2="450" y1="1119.3242" y2="1119.3242"/><line style="stroke:#181818;stroke-width:1.0;" x1="450" x2="450" y1="1119.3242" y2="1141.3242"/><polygon fill="#181818" points="446,1131.3242,450,1141.3242,454,1131.3242,450,1135.3242" style="stroke:#181818;stroke-width:1.0;"/><line style="stroke:#181818;stroke-width:1.0;" x1="450" x2="450" y1="1175.457" y2="1222.457"/><line style="stroke:#181818;stroke-width:1.0;" x1="450" x2="198.5" y1="1222.457" y2="1222.457"/><line style="stroke:#181818;stroke-width:1.0;" x1="198.5" x2="198.5" y1="1222.457" y2="1249.457"/><polygon fill="#181818" points="194.5,1239.457,198.5,1249.457,202.5,1239.457,198.5,1243.457" style="stroke:#181818;stroke-width:1.0;"/><line style="stroke:#181818;stroke-width:1.0;" x1="324.5" x2="324.5" y1="1087.3242" y2="1107.3242"/><polygon fill="#181818" points="320.5,1097.3242,324.5,1107.3242,328.5,1097.3242,324.5,1101.3242" style="stroke:#181818;stroke-width:1.0;"/><line style="stroke:#181818;stroke-width:1.0;" x1="84" x2="72.5" y1="1031.1914" y2="1031.1914"/><line style="stroke:#181818;stroke-width:1.0;" x1="72.5" x2="72.5" y1="1031.1914" y2="1053.1914"/><polygon fill="#181818" points="68.5,1043.1914,72.5,1053.1914,76.5,1043.1914,72.5,1047.1914" style="stroke:#181818;stroke-width:1.0;"/><line style="stroke:#181818;stroke-width:1.0;" x1="313" x2="324.5" y1="1031.1914" y2="1031.1914"/><line style="stroke:#181818;stroke-width:1.0;" x1="324.5" x2="324.5" y1="1031.1914" y2="1053.1914"/><polygon fill="#181818" points="320.5,1043.1914,324.5,1053.1914,328.5,1043.1914,324.5,1047.1914" style="stroke:#181818;stroke-width:1.0;"/><line style="stroke:#181818;stroke-width:1.0;" x1="198.5" x2="198.5" y1="999.1914" y2="1019.1914"/><polygon fill="#181818" points="194.5,1009.1914,198.5,1019.1914,202.5,1009.1914,198.5,1013.1914" style="stroke:#181818;stroke-width:1.0;"/><a href="https://github.com/Ahoo-Wang/CoSec" target="_top" title="https://github.com/Ahoo-Wang/CoSec" xlink:actuate="onRequest" xlink:href="https://github.com/Ahoo-Wang/CoSec" xlink:show="new" xlink:title="https://github.com/Ahoo-Wang/CoSec" xlink:type="simple"><text fill="#808080" font-family="sans-serif" font-size="10" lengthAdjust="spacing" text-decoration="underline" textLength="189" x="170.5" y="1280.125">https://github.com/Ahoo-Wang/CoSec</text></a><!--SRC=[vP91ReCm44NtFiLq1rAK0y0gQgLiKN825mOoah6fFMvBJryJK1iS4XIfksvi-UlF_F6pdqYNobS8IlR6yxRphH9Ch11sda_6qfTaCdehfnCc1tppw7XpnD9RulxPQCPFJeLZQLbawyvSDDRu3lRAl4e5XL5K4ZgHDSYnc8_g2-eUZYmPMzGSLAeXUKTBTGzsZ07lI3UnCmLoaB3rc0AVK0k0h1eiKrKU1CUc4wWSGbBBiAM3QKZTAMK-Ph40DuDZyq9oQ2lFhelmAHuW7g2muMsecx48BbrHBNvME9CK4z3haf7UKgl_YlLWmjykqBRaNFZOwr3ZWf7STPjVe3FvFj4BwnyWZQwrmlH-zYDG5oPTHZgKVmC0]--></g></svg>